<!-- icon666.com - MILLIONS vector ICONS FREE --><svg xmlns="http://www.w3.org/2000/svg" xmlns:xlink="http://www.w3.org/1999/xlink" version="1.1" id="Layer_1_1_" x="0px" y="0px" viewBox="0 0 64 64" style="enable-background:new 0 0 64 64;" xml:space="preserve"><g><path d="M29,48c0-4.039-2.391-7.349-5-8.53V31h2.388l-2.251-6.751C26.424,23.096,28,20.731,28,18c0-3.86-3.141-7-7-7h-1V9h3V8 c0-2.757-2.243-5-5-5h-6C9.243,3,7,5.243,7,8v1h3v2H9c-3.859,0-7,3.14-7,7c0,2.731,1.576,5.096,3.863,6.249L3.612,31H6v8.47 C3.391,40.651,1,43.961,1,48c0,3.009,1.33,5.609,3.085,7.232C3.444,55.566,3,56.229,3,57v2c0,1.103,0.897,2,2,2h20 c1.103,0,2-0.897,2-2v-2c0-0.771-0.444-1.434-1.085-1.768C27.67,53.609,29,51.009,29,48z M27,48c0,4.061-2.986,7-5,7h-1.389 C21.505,53.288,22,51.192,22,49c0-2.767-0.751-5.235-1.981-7.028C20.629,41.346,21.313,41,22,41C24.014,41,27,43.939,27,48z M11.736,55C10.633,53.466,10,51.314,10,49c0-4.337,2.29-8,5-8s5,3.663,5,8c0,2.314-0.633,4.466-1.736,6H11.736z M26,18 c0,2.757-2.243,5-5,5h-1.809C20.305,21.728,21,19.958,21,18s-0.695-3.728-1.809-5H21C23.757,13,26,15.243,26,18z M11,18 c0-2.757,1.794-5,4-5s4,2.243,4,5s-1.794,5-4,5S11,20.757,11,18z M12,5h6c1.304,0,2.416,0.836,2.829,2H9.171 C9.584,5.836,10.696,5,12,5z M12,9h6v2h-6V9z M4,18c0-2.757,2.243-5,5-5h1.809C9.695,14.272,9,16.042,9,18s0.695,3.728,1.809,5H9 C6.243,23,4,20.757,4,18z M9,25h12c0.424,0,0.837-0.044,1.241-0.117L23.612,29H6.388l1.372-4.117C8.163,24.956,8.576,25,9,25z M8,31h14v8c-1.199,0-2.343,0.517-3.312,1.47C17.623,39.541,16.365,39,15,39s-2.623,0.541-3.688,1.47C10.343,39.517,9.199,39,8,39 V31z M3,48c0-4.061,2.986-7,5-7c0.687,0,1.371,0.346,1.981,0.972C8.751,43.765,8,46.233,8,49c0,2.192,0.496,4.288,1.389,6H8 C5.986,55,3,52.061,3,48z M25,57l0.002,2H5v-2H25z" fill="#000000" style="fill: rgb(255, 255, 255);"></path><path d="M16.822,44.101l-1.645,1.137C15.557,45.786,16,47.101,16,49h2C18,46.998,17.56,45.166,16.822,44.101z" fill="#000000" style="fill: rgb(255, 255, 255);"></path><path d="M59.915,55.232C61.67,53.609,63,51.009,63,48c0-4.039-2.391-7.349-5-8.53V31h2.388l-2.251-6.751 C60.424,23.096,62,20.731,62,18c0-3.86-3.141-7-7-7h-1V9h3V8c0-2.757-2.243-5-5-5h-6c-2.757,0-5,2.243-5,5v1h3v2h-1 c-3.859,0-7,3.14-7,7c0,2.731,1.576,5.096,3.863,6.249L37.612,31H40v8.47c-2.609,1.181-5,4.491-5,8.53 c0,3.009,1.33,5.609,3.085,7.232C37.444,55.566,37,56.229,37,57v2c0,1.103,0.897,2,2,2h20c1.103,0,2-0.897,2-2v-2 C61,56.229,60.556,55.566,59.915,55.232z M61,48c0,4.061-2.986,7-5,7h-1.389C55.505,53.288,56,51.192,56,49 c0-2.767-0.751-5.235-1.981-7.028C54.629,41.346,55.313,41,56,41C58.014,41,61,43.939,61,48z M45.736,55 C44.633,53.466,44,51.314,44,49c0-4.337,2.29-8,5-8s5,3.663,5,8c0,2.314-0.633,4.466-1.736,6H45.736z M60,18c0,2.757-2.243,5-5,5 h-1.809C54.305,21.728,55,19.958,55,18s-0.695-3.728-1.809-5H55C57.757,13,60,15.243,60,18z M45,18c0-2.757,1.794-5,4-5 s4,2.243,4,5s-1.794,5-4,5S45,20.757,45,18z M46,5h6c1.304,0,2.416,0.836,2.829,2H43.171C43.584,5.836,44.696,5,46,5z M46,9h6v2h-6 V9z M38,18c0-2.757,2.243-5,5-5h1.809C43.695,14.272,43,16.042,43,18s0.695,3.728,1.809,5H43C40.243,23,38,20.757,38,18z M43,25h12 c0.424,0,0.837-0.044,1.241-0.117L57.612,29H40.388l1.372-4.117C42.163,24.956,42.576,25,43,25z M42,31h14v8 c-1.199,0-2.343,0.517-3.312,1.47C51.623,39.541,50.365,39,49,39s-2.623,0.541-3.688,1.47C44.343,39.517,43.199,39,42,39V31z M37,48c0-4.061,2.986-7,5-7c0.687,0,1.371,0.346,1.981,0.972C42.751,43.765,42,46.233,42,49c0,2.192,0.496,4.288,1.389,6H42 C39.986,55,37,52.061,37,48z M39,59v-2h20l0.002,2H39z" fill="#000000" style="fill: rgb(255, 255, 255);"></path><path d="M50.822,44.101l-1.645,1.137C49.557,45.786,50,47.101,50,49h2C52,46.998,51.56,45.166,50.822,44.101z" fill="#000000" style="fill: rgb(255, 255, 255);"></path></g></svg>