<!-- icon666.com - MILLIONS vector ICONS FREE --><svg id="Capa_1" enable-background="new 0 0 512 512" viewBox="0 0 512 512" xmlns="http://www.w3.org/2000/svg"><path d="m497 122h-35v-25c0-8.284-6.716-15-15-15s-15 6.716-15 15v25h-212v-32h35c8.284 0 15-6.716 15-15v-60c0-8.284-6.716-15-15-15h-160c-8.284 0-15 6.716-15 15v60c0 8.284 6.716 15 15 15h35v32h-35c-6.883 0-12.883 4.685-14.552 11.362l-7.16 28.638h-38.288c-7.15 0-13.307 5.047-14.708 12.059l-20 100c-.881 4.406.259 8.976 3.108 12.451s7.106 5.49 11.6 5.49h40.361l-44.498 163.16c-3.721 13.644-.932 27.915 7.653 39.154s21.619 17.686 35.761 17.686h57.809c20.237 0 38.09-13.636 43.415-33.159l23.683-86.841h55.816c35.841 0 65-29.159 65-65v-35h197c8.284 0 15-6.716 15-15v-140c0-8.284-6.716-15-15-15zm-387-92h130v30h-130zm50 60h30v32h-30zm322 62v50h-387.788l12.5-50zm-355.443 318.947c-1.774 6.508-7.726 11.053-14.471 11.053h-57.809c-4.714 0-9.059-2.148-11.92-5.895s-3.792-8.504-2.551-13.053l46.651-171.052h88.904l-22.105 81.053c-.001.003-.001.005-.002.008zm143.443-143.947c0 19.299-15.701 35-35 35h-47.634l15.305-56.116 21.723 21.723c2.928 2.928 6.767 4.393 10.606 4.393s7.678-1.465 10.606-4.394c5.858-5.857 5.858-15.355 0-21.213l-14.393-14.393h38.787zm212-65h-448.703l14-70h18.491l-5.341 21.362c-1.12 4.48-.113 9.229 2.729 12.869 2.844 3.641 7.205 5.769 11.824 5.769h407z" fill="#000000" style="fill: rgb(255, 255, 255);"></path><path d="m122.587 322.528c-7.996-2.18-16.239 2.532-18.419 10.524l-27.279 100c-2.18 7.992 2.531 16.238 10.523 18.419 1.322.36 2.65.532 3.957.532 6.597 0 12.643-4.386 14.462-11.057l27.279-100c2.181-7.991-2.53-16.237-10.523-18.418z" fill="#000000" style="fill: rgb(255, 255, 255);"></path></svg>