<!DOCTYPE svg PUBLIC "-//W3C//DTD SVG 1.1//EN" "http://www.w3.org/Graphics/SVG/1.1/DTD/svg11.dtd">
<!-- Uploaded to: SVG Repo, www.svgrepo.com, Transformed by: SVG Repo Mixer Tools -->
<svg fill="#fff" height="800px" width="800px" version="1.1" id="Layer_1" xmlns="http://www.w3.org/2000/svg" xmlns:xlink="http://www.w3.org/1999/xlink" viewBox="0 0 512 512" xml:space="preserve" stroke="#fff">
<g id="SVGRepo_bgCarrier" stroke-width="0"/>
<g id="SVGRepo_tracerCarrier" stroke-linecap="round" stroke-linejoin="round"/>
<g id="SVGRepo_iconCarrier"> <g> <g> <path d="M390.907,187.063c-6.852,0-12.412,5.561-12.412,12.412s5.561,12.412,12.412,12.412s12.412-5.561,12.412-12.412 S397.759,187.063,390.907,187.063z"/> </g> </g> <g> <g> <path d="M456.639,105.154c-20.978-23.082-49.219-37.884-79.908-42.039L314.219,3.434c-0.107-0.103-0.225-0.192-0.335-0.29 c-0.151-0.135-0.302-0.272-0.461-0.4c-0.148-0.118-0.3-0.227-0.453-0.339c-0.17-0.125-0.339-0.251-0.516-0.367 c-0.145-0.096-0.295-0.181-0.444-0.269c-0.195-0.117-0.389-0.235-0.59-0.34c-0.138-0.072-0.281-0.135-0.421-0.202 c-0.22-0.106-0.438-0.211-0.664-0.304c-0.134-0.055-0.272-0.099-0.407-0.149c-0.237-0.087-0.473-0.175-0.717-0.248 c-0.144-0.043-0.292-0.074-0.438-0.113c-0.238-0.062-0.474-0.127-0.717-0.175c-0.192-0.038-0.387-0.06-0.581-0.088 c-0.201-0.03-0.4-0.067-0.604-0.087C306.466,0.022,306.058,0,305.648,0h-99.297c-0.41,0-0.817,0.021-1.221,0.062 c-0.207,0.02-0.407,0.058-0.612,0.088c-0.191,0.029-0.385,0.05-0.573,0.088c-0.247,0.048-0.487,0.114-0.727,0.177 c-0.143,0.037-0.287,0.068-0.427,0.11c-0.247,0.075-0.488,0.164-0.729,0.252c-0.132,0.048-0.266,0.092-0.396,0.145 c-0.23,0.094-0.453,0.201-0.675,0.309c-0.137,0.066-0.274,0.127-0.41,0.197c-0.205,0.108-0.402,0.227-0.599,0.346 c-0.145,0.087-0.293,0.171-0.434,0.264c-0.179,0.118-0.35,0.246-0.524,0.372c-0.15,0.109-0.3,0.217-0.446,0.334 c-0.161,0.129-0.313,0.268-0.467,0.405c-0.109,0.097-0.223,0.185-0.33,0.285l-62.514,59.679 C104.58,67.27,76.34,82.073,55.359,105.154c-22.125,24.341-34.308,55.872-34.308,88.785v305.648 c0,6.855,5.557,12.412,12.412,12.412h87.63h269.815h87.63c6.854,0,12.412-5.557,12.412-12.412V193.939 C490.949,161.026,478.765,129.496,456.639,105.154z M108.681,487.176H45.875v-28.113h62.805V487.176z M193.939,487.176h-60.435 v-89.367h24.911c6.855,0,12.412-5.557,12.412-12.412s-5.557-12.412-12.412-12.412h-24.911V199.475 c0-6.855-5.557-12.412-12.412-12.412s-12.412,5.557-12.412,12.412v234.763H45.875V193.939c0-51.797,36.391-95.347,86.174-105.168 l61.891,208.036V487.176z M193.939,209.749l-39-131.093l39-37.234V209.749z M293.236,295.086c0,0.039,0,0.076,0,0.114v191.976 h-74.473V295.195c0-0.035,0-0.07,0-0.104V24.824h74.473V295.086z M318.061,41.422l39,37.234l-39,131.093V41.422z M466.125,487.176 h-62.805v-28.113h62.805V487.176z M466.125,434.238h-62.805V236.873c0-6.855-5.558-12.412-12.412-12.412 s-12.412,5.557-12.412,12.412v136.111h-24.911c-6.854,0-12.412,5.557-12.412,12.412s5.558,12.412,12.412,12.412h24.911v89.367 h-60.435v-190.37l61.891-208.035c49.783,9.819,86.174,53.37,86.174,105.168V434.238z"/> </g> </g> </g>
</svg>