<!-- icon666.com - MILLIONS vector ICONS FREE --><svg viewBox="-72 0 480 480" xmlns="http://www.w3.org/2000/svg"><path d="m8 208h192c4.417969 0 8-3.582031 8-8v-192c0-4.417969-3.582031-8-8-8h-192c-4.417969 0-8 3.582031-8 8v192c0 4.417969 3.582031 8 8 8zm184-96h-80v-48h80zm-176-96h176v32h-88c-4.417969 0-8 3.582031-8 8v64c0 4.417969 3.582031 8 8 8h88v64h-176zm0 0" fill="#000000" style="fill: rgb(255, 255, 255);"></path><path d="m8 208h192c4.417969 0 8-3.582031 8-8v-192c0-4.417969-3.582031-8-8-8h-192c-4.417969 0-8 3.582031-8 8v192c0 4.417969 3.582031 8 8 8zm184-96h-80v-48h80zm-176-96h176v32h-88c-4.417969 0-8 3.582031-8 8v64c0 4.417969 3.582031 8 8 8h88v64h-176zm0 0" fill="#000000" style="fill: rgb(255, 255, 255);"></path><path d="m140.425781 87.152344 7.152344-14.3125 32 16-7.15625 14.3125zm0 0" fill="#000000" style="fill: rgb(255, 255, 255);"></path><path d="m140.425781 87.152344 7.152344-14.3125 32 16-7.15625 14.3125zm0 0" fill="#000000" style="fill: rgb(255, 255, 255);"></path><path d="m8 224c-4.417969 0-8 3.582031-8 8v240c0 4.417969 3.582031 8 8 8h208c4.417969 0 8-3.582031 8-8v-136h88c13.253906 0 24-10.746094 24-24v-192c0-4.417969-3.582031-8-8-8h-24v-24c0-4.417969-3.582031-8-8-8h-24v-40c0-4.417969-3.582031-8-8-8h-32c-4.417969 0-8 3.582031-8 8v144c0 4.417969 3.582031 8 8 8h24v64h-32v-24c0-4.417969-3.582031-8-8-8zm88 160h-80v-16h80zm-80 80v-64h80v64zm272-368v24c0 4.417969 3.582031 8 8 8h24v48h-48v-80zm-48-48h16v128h-16zm24 224c4.417969 0 8-3.582031 8-8v-72h48v120c0 4.417969-3.582031 8-8 8h-184v-48zm-144-16c-4.417969 0-8 3.582031-8 8v64c0 4.417969 3.582031 8 8 8h88v128h-96v-104c0-4.417969-3.582031-8-8-8h-88v-112h192v16zm0 0" fill="#000000" style="fill: rgb(255, 255, 255);"></path><path d="m8 224c-4.417969 0-8 3.582031-8 8v240c0 4.417969 3.582031 8 8 8h208c4.417969 0 8-3.582031 8-8v-136h88c13.253906 0 24-10.746094 24-24v-192c0-4.417969-3.582031-8-8-8h-24v-24c0-4.417969-3.582031-8-8-8h-24v-40c0-4.417969-3.582031-8-8-8h-32c-4.417969 0-8 3.582031-8 8v144c0 4.417969 3.582031 8 8 8h24v64h-32v-24c0-4.417969-3.582031-8-8-8zm88 160h-80v-16h80zm-80 80v-64h80v64zm272-368v24c0 4.417969 3.582031 8 8 8h24v48h-48v-80zm-48-48h16v128h-16zm24 224c4.417969 0 8-3.582031 8-8v-72h48v120c0 4.417969-3.582031 8-8 8h-184v-48zm-144-16c-4.417969 0-8 3.582031-8 8v64c0 4.417969 3.582031 8 8 8h88v128h-96v-104c0-4.417969-3.582031-8-8-8h-88v-112h192v16zm0 0" fill="#000000" style="fill: rgb(255, 255, 255);"></path></svg>