<!-- icon666.com - MILLIONS vector ICONS FREE --><svg viewBox="0 -32 512.01231 512" xmlns="http://www.w3.org/2000/svg"><path d="m496.011719 224.066406c-8.835938 0-16 7.164063-16 16v16h-64v-16c-.039063-21.714844-14.640625-40.703125-35.617188-46.320312 32.011719-29.84375 43.679688-75.609375 29.867188-117.132813-13.8125-41.527343-50.574219-71.183593-94.082031-75.902343-43.507813-4.71875-85.769532 16.363281-108.167969 53.960937-22.386719-37.621094-64.660157-58.730469-108.183594-54.015625-43.527344 4.714844-80.300781 34.382812-94.113281 75.925781s-2.125 87.328125 29.914062 117.164063c-20.976562 5.617187-35.5742185 24.605468-35.6171872 46.320312v160c.0273437 26.496094 21.5000002 47.972656 48.0000002 48h320c26.5-.027344 47.972656-21.503906 48-48v-16h64v16c0 8.835938 7.164062 16 16 16 8.835937 0 16-7.164062 16-16v-160c0-8.835937-7.164063-16-16-16zm-192-192c44.183593 0 80 35.816406 80 80s-35.816407 80-80 80c-44.183594 0-80-35.816406-80-80 .050781-44.164062 35.839843-79.953125 80-80zm-78.230469 160h-35.535156c6.863281-6.746094 12.835937-14.34375 17.765625-22.609375 4.933593 8.265625 10.902343 15.863281 17.769531 22.609375zm-193.769531-80c0-44.183594 35.816406-80 80-80 44.183593 0 80 35.816406 80 80s-35.816407 80-80 80c-44.160157-.050781-79.949219-35.839844-80-80zm352 288c0 8.835938-7.164063 16-16 16h-320c-8.835938 0-16-7.164062-16-16v-160c0-8.835937 7.164062-16 16-16h320c8.835937 0 16 7.164063 16 16zm32-48v-64h64v64zm0 0" fill="#000000" style="fill: rgb(255, 255, 255);"></path><path d="m112.011719 128.066406c6.484375.003906 12.332031-3.90625 14.804687-9.902344 2.472656-5.996093 1.082032-12.890624-3.523437-17.457031-6.390625-5.941406-16.292969-5.90625-22.640625.078125-2.976563 3-4.644532 7.054688-4.640625 11.28125 0 8.835938 7.164062 16 16 16zm0 0" fill="#000000" style="fill: rgb(255, 255, 255);"></path><path d="m304.011719 128.066406c8.808593-.066406 15.933593-7.191406 16-16 0-4.265625-1.699219-8.351562-4.71875-11.359375-6.355469-5.921875-16.207031-5.921875-22.5625 0-3.019531 3.007813-4.714844 7.09375-4.71875 11.359375.066406 8.808594 7.191406 15.933594 16 16zm0 0" fill="#000000" style="fill: rgb(255, 255, 255);"></path></svg>