<!-- icon666.com - MILLIONS vector ICONS FREE --><svg id="svg8" viewBox="0 0 16.933333 16.933334" xmlns="http://www.w3.org/2000/svg" xmlns:svg="http://www.w3.org/2000/svg"><g id="layer1" transform="translate(0 -280.067)"><path id="rect2042" d="m3.7042458 282.7084c-.40905 0-.78204.0956-1.07229.26975s-.51521.45038-.51521.78858v.79375c.00012.003.00029.006.00051.009v2.3735h-1.32446003c-.14532.00058-.26297.11823-.26355.26355-.00036 2.29434 0 4.58452 0 6.87916-.00056.14612.11743.26504.26355.26562 5.23786003.0155 10.78461023.00012 15.34583023 0 .14693.00056.26618-.11869.26562-.26562v-6.87916c-.00059-.14612-.1195-.26411-.26562-.26355h-1.3224v-2.36368c.00039-.006.00056-.0124.00052-.0186v-.79375c0-.3382-.22497-.61443-.51522-.78858s-.66323-.26975-1.07228-.26975-.78204.0956-1.07229.26975-.51521.45038-.51521.78858v.52969h-6.3500002v-.52969c0-.3382-.22497-.61443-.51522-.78858s-.66323-.26975-1.07228-.26975zm0 .52917c.32384 0 .61196.0815.79995.1943.18798.11279.25838.23333.25838.33486v.52917h-2.11667v-.52917c0-.10153.0704-.22207.25839-.33486.18798-.11279.4761-.1943.79995-.1943zm9.5250002 0c.32384 0 .61196.0815.79995.1943.18798.11279.25838.23333.25838.33486v.52917h-2.11667v-.52917c0-.10153.0704-.22207.25839-.33486.18798-.11279.4761-.1943.79995-.1943zm-10.5828202 1.58801h11.6406302v2.11719h-.52916v-1.32034c.002-.14855-.11914-.26942-.26769-.26768-.14612.002-.26319.12156-.26148.26768v1.32034h-.52968v-1.32034c.002-.14834-.11882-.26912-.26717-.26768-.14633.001-.26371.12136-.262.26768v1.32034h-2.11512v-1.32034c.002-.14937-.1203902-.27059-.2697502-.26768-.14531.003-.26113.12236-.25941.26768v1.32034h-2.11719v-1.32034c.002-.14855-.11913-.26942-.26768-.26768-.14633.001-.26371.12136-.262.26768v1.32034h-2.11718v-1.32034c.002-.14834-.11882-.26912-.26717-.26768-.14633.001-.26371.12136-.262.26768v1.32034h-.52917v-1.32034c.002-.14855-.11913-.26942-.26768-.26768-.14531.003-.26113.12236-.25942.26768v1.32034h-.52968zm-1.5875 2.64429h1.05833v2.11873h-1.05833zm1.5875 0h.52968v6.35155h-.52968zm1.05678 0h.52917v.82062c.008.34504.52151.34504.52917 0v-.82062h2.11718v.82062c0 .35312.52968.35312.52968 0v-.82062h2.11719v.82062c-.008.36071.5371802.36071.5291602 0v-.82062h2.11512v.82062c.008.34503.52151.34503.52917 0v-.82062h.52968v6.35155h-1.05782v-3.67885c0-.58174-.47659-1.05833-1.05833-1.05833s-1.05833.47659-1.05833 1.05833v3.67885h-.5291702v-3.67885c0-.58174-.47659-1.05833-1.05833-1.05833s-1.05834.47659-1.05834 1.05833v3.67885h-.52916v-3.67885c0-.58174-.4766-1.05833-1.05834-1.05833s-1.05833.47659-1.05833 1.05833v3.67885h-1.05937zm10.0546902 0h.52916v6.35155h-.52916zm1.05833 0h1.05885v2.11873h-1.05885zm-8.9953202 2.14354c.29774 0 .52917.23142.52917.52916v3.67833h-1.05833v-3.67833c0-.29774.23143-.52916.52916-.52916zm2.64584 0c.29773 0 .52916.23142.52916.52916v3.67833h-1.05833v-3.67833c0-.29774.23143-.52916.52917-.52916zm2.6458302 0c.29773 0 .52917.23142.52917.52916v3.67833h-1.05834v-3.67833c0-.29774.23143-.52916.52917-.52916zm-10.0536502.50436h1.05833v3.70365h-1.05833zm13.7573002 0h1.05885v3.70365h-1.05885z" font-variant-ligatures="normal" font-variant-position="normal" font-variant-caps="normal" font-variant-numeric="normal" font-variant-alternates="normal" font-feature-settings="normal" text-indent="0" text-align="start" text-decoration-line="none" text-decoration-style="solid" text-decoration-color="rgb(0,0,0)" text-transform="none" text-orientation="mixed" white-space="normal" shape-padding="0" isolation="auto" mix-blend-mode="normal" solid-color="rgb(0,0,0)" solid-opacity="1" vector-effect="none" paint-order="normal" fill="#000000" style="fill: rgb(255, 255, 255);"></path></g></svg>