<!DOCTYPE svg PUBLIC "-//W3C//DTD SVG 1.1//EN" "http://www.w3.org/Graphics/SVG/1.1/DTD/svg11.dtd">
<!-- Uploaded to: SVG Repo, www.svgrepo.com, Transformed by: SVG Repo Mixer Tools -->
<svg fill="#fff" width="800px" height="800px" viewBox="0 0 100 100" version="1.1" xml:space="preserve" xmlns="http://www.w3.org/2000/svg" xmlns:xlink="http://www.w3.org/1999/xlink" stroke="#fff">
<g id="SVGRepo_bgCarrier" stroke-width="0"/>
<g id="SVGRepo_tracerCarrier" stroke-linecap="round" stroke-linejoin="round"/>
<g id="SVGRepo_iconCarrier"> <g id="news_updates"/> <g id="newspaper"/> <g id="fake_news"/> <g id="secret_document"/> <g id="interview"/> <g id="reporter"/> <g id="id_card"/> <g id="camera"/> <g id="television"/> <g id="crime_scane"> <g> <path d="M73.1,12C73.1,12,73.1,12,73.1,12l-0.6,0c-2,0-3.6,1.4-3.8,3.3L67.6,24c-0.2,1.3-1.4,2.2-2.7,2.1l-8.4-0.8 C58,23.7,59,21.5,59,19c0-5-4-9-9-9s-9,4-9,9c0,3.1,1.6,5.9,4.1,7.5L24.2,46c-1.4,1.4-1.6,3.5-0.3,5l0.2,0.2 c1.3,1.6,3.7,1.9,5.4,0.6l11.1-8.1L38.1,86c-0.1,1,0.3,2,1,2.7c0.7,0.8,1.8,1.2,2.9,1.2c1.8,0,3.3-1.2,3.8-2.9L52,62.6l8,4.1 c1,0.5,1.5,1.6,1.3,2.7l-1.4,6c-0.5,1.9,0.6,3.8,2.6,4.4l0.1,0c2,0.6,4.2-0.4,4.9-2.3l4.4-11.9c0.7-1.8,0-3.9-1.6-5.1l-10.7-7.5 l1.6-17.1L72,35.3c2.4-0.1,4.2-2,4.3-4.2L77,15.9c0-1-0.3-2-1-2.7C75.2,12.4,74.2,12,73.1,12z M43,19c0-3.9,3.1-7,7-7s7,3.1,7,7 s-3.1,7-7,7S43,22.9,43,19z M74.4,31c-0.1,1.3-1.1,2.3-2.4,2.3L60.1,34c-0.5,0-0.9,0.4-0.9,0.9l-1.8,18.6c0,0.4,0.1,0.7,0.4,0.9 L69,62.1c0.9,0.6,1.3,1.7,0.9,2.7l-4.4,11.9c-0.3,0.9-1.4,1.4-2.4,1.1l-0.1,0c-0.9-0.3-1.4-1.2-1.2-2l1.4-6c0.5-2-0.5-4-2.3-4.9 l-9.1-4.7c-0.3-0.1-0.6-0.1-0.9,0c-0.3,0.1-0.5,0.4-0.6,0.7l-6.5,25.8c-0.2,0.8-1,1.3-1.8,1.3c-0.5,0-1.1-0.2-1.4-0.6 c-0.3-0.3-0.5-0.8-0.5-1.2l2.5-44.4c0-0.4-0.2-0.8-0.5-0.9c-0.3-0.2-0.8-0.2-1.1,0.1l-12.8,9.3c-0.8,0.6-2,0.5-2.6-0.3l-0.2-0.2 c-0.6-0.7-0.5-1.7,0.1-2.3l21.2-19.7c0.1-0.1,0.2-0.2,0.2-0.3c1,0.4,2,0.6,3.1,0.6c1.6,0,3-0.4,4.3-1.1c0.2,0.1,0.3,0.3,0.6,0.3 l9.8,1c2.5,0.2,4.6-1.5,4.9-3.9l1.1-8.7c0.1-0.9,0.9-1.6,1.9-1.6l0.6,0c0,0,0,0,0,0c0.5,0,1,0.2,1.4,0.6c0.3,0.3,0.5,0.8,0.5,1.2 L74.4,31z"/> <path d="M84,88c-0.6,0-1,0.4-1,1v5h-5c-0.6,0-1,0.4-1,1s0.4,1,1,1h6c0.6,0,1-0.4,1-1v-6C85,88.4,84.6,88,84,88z"/> <path d="M44.6,94H33.4c-0.6,0-1,0.4-1,1s0.4,1,1,1h11.2c0.6,0,1-0.4,1-1S45.2,94,44.6,94z"/> <path d="M67,94H55.8c-0.6,0-1,0.4-1,1s0.4,1,1,1H67c0.6,0,1-0.4,1-1S67.6,94,67,94z"/> <path d="M22,94h-5v-5c0-0.6-0.4-1-1-1s-1,0.4-1,1v6c0,0.6,0.4,1,1,1h6c0.6,0,1-0.4,1-1S22.6,94,22,94z"/> <path d="M16,56.7c0.6,0,1-0.4,1-1V44.6c0-0.6-0.4-1-1-1s-1,0.4-1,1v11.1C15,56.3,15.4,56.7,16,56.7z"/> <path d="M16,34.4c0.6,0,1-0.4,1-1V22.3c0-0.6-0.4-1-1-1s-1,0.4-1,1v11.1C15,34,15.4,34.4,16,34.4z"/> <path d="M16,79c0.6,0,1-0.4,1-1V66.9c0-0.6-0.4-1-1-1s-1,0.4-1,1V78C15,78.6,15.4,79,16,79z"/> <path d="M22,4h-6c-0.6,0-1,0.4-1,1v6c0,0.6,0.4,1,1,1s1-0.4,1-1V6h5c0.6,0,1-0.4,1-1S22.6,4,22,4z"/> <path d="M55.4,6h11.2c0.6,0,1-0.4,1-1s-0.4-1-1-1H55.4c-0.6,0-1,0.4-1,1S54.8,6,55.4,6z"/> <path d="M33,6h11.2c0.6,0,1-0.4,1-1s-0.4-1-1-1H33c-0.6,0-1,0.4-1,1S32.4,6,33,6z"/> <path d="M84,4h-6c-0.6,0-1,0.4-1,1s0.4,1,1,1h5v5c0,0.6,0.4,1,1,1s1-0.4,1-1V5C85,4.4,84.6,4,84,4z"/> <path d="M84,65.6c-0.6,0-1,0.4-1,1v11.1c0,0.6,0.4,1,1,1s1-0.4,1-1V66.6C85,66,84.6,65.6,84,65.6z"/> <path d="M84,21c-0.6,0-1,0.4-1,1v11.1c0,0.6,0.4,1,1,1s1-0.4,1-1V22C85,21.4,84.6,21,84,21z"/> <path d="M84,43.3c-0.6,0-1,0.4-1,1v11.1c0,0.6,0.4,1,1,1s1-0.4,1-1V44.3C85,43.7,84.6,43.3,84,43.3z"/> </g> </g> <g id="note"/> <g id="recorder"/> <g id="station_television"/> <g id="file_storage"/> <g id="news_anchor"/> <g id="trending_news"/> <g id="world_news"/> <g id="document"/> <g id="radio"/> <g id="video_recorder"/> </g>
</svg>