<!-- icon666.com - MILLIONS vector ICONS FREE --><svg id="Capa_1" enable-background="new 0 0 512 512" viewBox="0 0 512 512" xmlns="http://www.w3.org/2000/svg"><g><path d="m184.011 246.604c1.989 0 3.897-.79 5.303-2.196l33.383-33.384 8.977 8.977c1.419 1.419 3.333 2.196 5.303 2.196.456 0 .915-.042 1.371-.126 2.43-.452 4.481-2.072 5.484-4.332l12.789-28.82c.903-2.034.855-4.365-.13-6.361l-11.913-24.139 18-21.79c2.539-3.073 2.23-7.597-.704-10.296l-30.485-28.047 11.198-12.624c2.633-2.969 2.498-7.475-.308-10.28l-11.51-11.509c-15.369-15.372-38.4-20.223-58.672-12.366-3.862 1.497-5.779 5.842-4.282 9.704 1.497 3.861 5.841 5.775 9.704 4.282 14.734-5.714 31.474-2.185 42.644 8.986l6.515 6.515-11.397 12.849c-2.713 3.059-2.477 7.728.533 10.496l30.672 28.219-16.563 20.051c-1.881 2.277-2.25 5.446-.943 8.096l12.506 25.342-6.932 15.621-70.789-70.79c-12.06-12.059-15.124-30.443-7.626-45.747 1.823-3.72.285-8.213-3.435-10.035-3.72-1.819-8.212-.285-10.035 3.436-10.132 20.679-6.243 45.436 9.606 62.034-6.812 1.229-13.345 4.471-18.616 9.742-13.523 13.523-13.523 35.527 0 49.052l45.049 45.05c1.406 1.404 3.314 2.194 5.303 2.194zm-45.511-71.772c0-5.258 2.047-10.2 5.766-13.918 7.809-7.81 20.408-7.914 28.087-.235.001.001.002.001.003.002l39.735 39.736-28.08 28.081-39.746-39.747c-3.717-3.718-5.765-8.661-5.765-13.919z" fill="#000000" style="fill: rgb(255, 255, 255);"></path><path d="m285.882 129.492-22.811 27.611c-1.881 2.277-2.25 5.446-.943 8.096l10.388 21.048-4.875 27.123c-.58 3.227 1.003 6.456 3.908 7.974 1.099.574 2.29.854 3.472.854 1.944 0 3.864-.755 5.306-2.196l8.977-8.977 33.384 33.384c1.406 1.406 3.314 2.196 5.303 2.196s3.897-.79 5.303-2.196l45.049-45.05c13.523-13.523 13.523-35.528 0-49.052-5.133-5.133-11.607-8.474-18.645-9.722 20.523-21.463 20.248-55.608-.855-76.713-21.397-21.396-56.214-21.397-77.612 0-.063.063-.126.129-.187.194l-25.429 27.326c-1.36 1.462-2.082 3.405-2.004 5.4.077 1.995.947 3.876 2.416 5.229zm81.853 59.259-39.746 39.747-28.08-28.081 39.657-39.658c.03-.029.063-.054.093-.084 3.646-3.646 8.54-5.647 13.798-5.647.058 0 .117 0 .176.001 5.344.045 10.352 2.135 14.102 5.885 7.674 7.675 7.675 20.162 0 27.837zm-75.809-114.362c15.556-15.458 40.788-15.431 56.308.091 15.549 15.549 15.549 40.849 0 56.397l-61.598 61.6 1.08-6.007c.284-1.579.054-3.208-.656-4.646l-9.333-18.909 24.247-29.351c2.539-3.073 2.23-7.597-.704-10.296l-29.538-27.178z" fill="#000000" style="fill: rgb(255, 255, 255);"></path><path d="m494.5 70.201h-71v-44.902c0-4.143-3.358-7.5-7.5-7.5h-320c-4.142 0-7.5 3.357-7.5 7.5v44.902h-71c-9.649 0-17.5 7.851-17.5 17.5v399c0 4.143 3.358 7.5 7.5 7.5s7.5-3.357 7.5-7.5v-399c0-1.379 1.122-2.5 2.5-2.5h42.5v20h-17.5c-6.893 0-12.5 5.607-12.5 12.5v20c0 6.893 5.607 12.5 12.5 12.5h17.5v20h-17.5c-6.893 0-12.5 5.607-12.5 12.5v20c0 6.893 5.607 12.5 12.5 12.5h17.5v20h-17.5c-6.893 0-12.5 5.607-12.5 12.5v20c0 6.893 5.607 12.5 12.5 12.5h17.5v20h-17.5c-6.893 0-12.5 5.607-12.5 12.5v20c0 6.893 5.607 12.5 12.5 12.5h17.5v20h-17.5c-6.893 0-12.5 5.607-12.5 12.5v20c0 6.893 5.607 12.5 12.5 12.5h209.138c4.142 0 7.5-3.357 7.5-7.5s-3.358-7.5-7.5-7.5h-63.751v-91.75h136.226v91.75h-37.475c-4.142 0-7.5 3.357-7.5 7.5s3.358 7.5 7.5 7.5h182.862c6.893 0 12.5-5.607 12.5-12.5v-20c0-6.893-5.607-12.5-12.5-12.5h-17.5v-20h17.5c6.893 0 12.5-5.607 12.5-12.5v-20c0-6.893-5.607-12.5-12.5-12.5h-17.5v-20h17.5c6.893 0 12.5-5.607 12.5-12.5v-20c0-6.893-5.607-12.5-12.5-12.5h-17.5v-20h17.5c6.893 0 12.5-5.607 12.5-12.5v-20c0-6.893-5.607-12.5-12.5-12.5h-17.5v-20h17.5c6.893 0 12.5-5.607 12.5-12.5v-20c0-6.893-5.607-12.5-12.5-12.5h-17.5v-20h42.5c1.378 0 2.5 1.121 2.5 2.5v37c0 4.143 3.358 7.5 7.5 7.5s7.5-3.357 7.5-7.5v-37c0-9.649-7.851-17.5-17.5-17.5zm-391-37.402h305v228.652h-216.606c-4.142 0-7.5 3.357-7.5 7.5s3.358 7.5 7.5 7.5h196.606v9.5c0 1.379-1.122 2.5-2.5 2.5h-260c-1.378 0-2.5-1.121-2.5-2.5v-9.5h33.394c4.142 0 7.5-3.357 7.5-7.5s-3.358-7.5-7.5-7.5h-53.394zm235.613 306.232h25v20.719h-25zm-166.226 20.719h-25v-20.719h25zm-127.887-224.549v-15h15v15zm0 65v-15h15v15zm0 65v-15h15v15zm0 65v-15h15v15zm0 50h15v15h-15zm30-295h13.5v183.75c0 4.143 3.358 7.5 7.5 7.5h12.5v9.5c0 9.649 7.851 17.5 17.5 17.5h6.887v91.75h-57.887zm72.887 310v-20.451h25v20.451zm25-71.17h-25v-20.58h25zm191.226-20.58v20.58h-25v-20.58zm-25 71.299h25v20.451h-25zm127.887 5.451v15h-15v-15zm0-65v15h-15v-15zm0-65v15h-15v-15zm0-65v15h-15v-15zm0-65v15h-15v-15zm-30 275h-57.887v-91.75h6.887c9.649 0 17.5-7.851 17.5-17.5v-9.5h12.5c4.142 0 7.5-3.357 7.5-7.5v-183.75h13.5z" fill="#000000" style="fill: rgb(255, 255, 255);"></path><path d="m504.5 152.201c-4.142 0-7.5 3.357-7.5 7.5v327c0 4.143 3.358 7.5 7.5 7.5s7.5-3.357 7.5-7.5v-327c0-4.142-3.358-7.5-7.5-7.5z" fill="#000000" style="fill: rgb(255, 255, 255);"></path><path d="m469.5 449.201c-31.52 0-395.453 0-427 0-6.893 0-12.5 5.607-12.5 12.5v20c0 6.893 5.607 12.5 12.5 12.5h25c4.142 0 7.5-3.357 7.5-7.5v-22.5h362v22.5c0 4.143 3.358 7.5 7.5 7.5h25c6.893 0 12.5-5.607 12.5-12.5v-20c0-6.892-5.607-12.5-12.5-12.5zm-424.5 15h15v15h-15zm422 15h-15v-15h15z" fill="#000000" style="fill: rgb(255, 255, 255);"></path></g></svg>