<!-- icon666.com - MILLIONS vector ICONS FREE --><svg version="1.1" id="Capa_1" xmlns="http://www.w3.org/2000/svg" xmlns:xlink="http://www.w3.org/1999/xlink" x="0px" y="0px" viewBox="0 0 466.929 466.929" style="enable-background:new 0 0 466.929 466.929;" xml:space="preserve"><path d="M438.536,2.93c-2.879-2.878-7.214-3.726-10.964-2.14c-1.566,0.662-38.979,16.583-93.24,49.08 c-50.012,29.952-124.158,80.186-193.374,149.401c-1.875,1.875-2.929,4.419-2.929,7.071s1.054,5.196,2.929,7.071l23.489,23.489 l-11.527,11.527l-23.488-23.489c-3.905-3.905-10.237-3.905-14.143,0l-23.225,23.225c-3.905,3.905-3.905,10.237,0,14.142 l16.292,16.292l-61.054,61.055c-14.083,14.082-21.838,32.804-21.838,52.719s7.755,38.637,21.837,52.718 c6.966,6.966,15.105,12.403,24.191,16.159c9.114,3.768,18.712,5.679,28.528,5.679c4.044,0,7.691-2.437,9.239-6.173 s0.692-8.038-2.167-10.898c-16.814-16.814-16.814-44.172,0-60.987l55.767-55.768l16.298,16.298c1.875,1.875,4.419,2.929,7.071,2.929 s5.196-1.054,7.071-2.929l23.225-23.225c3.905-3.905,3.905-10.237,0-14.142l-23.487-23.488l11.527-11.527l23.487,23.487 c1.953,1.953,4.512,2.929,7.071,2.929s5.119-0.976,7.071-2.929c69.216-69.216,119.449-143.361,149.402-193.374 c32.497-54.261,48.418-91.674,49.08-93.24C442.26,10.144,441.414,5.808,438.536,2.93z M344.253,67.24 c13.418-8.043,25.839-15.072,36.925-21.096L191.576,235.746l-29.362-29.361C227.798,142.347,297.016,95.556,344.253,67.24z M85.794,383.28l-16.12-16.116h30.839l-7.564,7.564C90.269,377.408,87.89,380.275,85.794,383.28z M68.077,347.164l43.661-43.661 v43.661H68.077z M61.443,430.949c-10.305-10.304-15.979-24.004-15.979-38.576c0-6.252,1.052-12.342,3.059-18.073l28.237,28.23 c-3.627,13.192-2.907,27.339,2.165,40.151C72.367,439.938,66.486,435.993,61.443,430.949z M131.737,335.94v-33.958l16.979,16.979 L131.737,335.94z M171.823,295.618l23.487,23.488l-9.083,9.083l-72.951-72.951l9.083-9.083l23.488,23.489 c3.905,3.905,10.237,3.905,14.143,0l18.598-18.599l11.833,11.833l-18.599,18.598C167.918,285.381,167.918,291.712,171.823,295.618z M374.225,97.212c-28.316,47.237-75.106,116.455-139.145,182.039l-29.361-29.362L395.321,60.287 C389.297,71.373,382.268,83.794,374.225,97.212z" fill="#000000" style="fill: rgb(255, 255, 255);"></path></svg>