<!DOCTYPE svg PUBLIC "-//W3C//DTD SVG 1.1//EN" "http://www.w3.org/Graphics/SVG/1.1/DTD/svg11.dtd">
<!-- Uploaded to: SVG Repo, www.svgrepo.com, Transformed by: SVG Repo Mixer Tools -->
<svg fill="#fff" height="800px" width="800px" version="1.1" id="Layer_1" xmlns="http://www.w3.org/2000/svg" xmlns:xlink="http://www.w3.org/1999/xlink" viewBox="0 0 512 512" xml:space="preserve" stroke="#fff">
<g id="SVGRepo_bgCarrier" stroke-width="0"/>
<g id="SVGRepo_tracerCarrier" stroke-linecap="round" stroke-linejoin="round"/>
<g id="SVGRepo_iconCarrier"> <g> <g> <path d="M511.76,309.64l-8.524-34.098c-0.004-0.016-0.009-0.033-0.012-0.049l-0.015-0.058c-0.014-0.056-0.035-0.108-0.05-0.162 c-0.056-0.203-0.114-0.405-0.187-0.605c-0.039-0.109-0.087-0.213-0.129-0.32c-0.049-0.12-0.091-0.241-0.145-0.359l-59.858-128.267 c-0.808-1.731-2.207-3.117-3.947-3.908l-94.063-42.756c-3.927-1.785-8.56-0.144-10.488,3.713l-8.551,17.102 c-1.981,3.96-0.375,8.776,3.585,10.756l82.443,41.222l23.958,77.866c-19.192-3.747-41.994-6.272-67.747-5.677 c-4.426,0.104-7.93,3.776-7.826,8.203c0.103,4.362,3.671,7.829,8.011,7.829c0.064,0,0.128-0.001,0.191-0.002 c61.093-1.428,104.333,15.503,120.16,22.897l7.077,28.306c-2.702,8.232-13.597,43.641-16.075,51.34l-19.157-70.241 c-0.601-2.201-2.109-4.04-4.149-5.06c-35.7-17.852-122.844-26.635-184.783-0.847h-30.957 c-61.939-25.787-149.082-17.003-184.783,0.847c-2.04,1.02-3.549,2.86-4.149,5.06l-19.157,70.241 c-2.477-7.699-13.372-43.108-16.075-51.34l7.08-28.319c45.13-21.317,126.502-35.329,212.925-6.52 c0.818,0.273,1.673,0.411,2.535,0.411h34.205c0.862,0,1.718-0.139,2.535-0.411c20.605-6.869,41.748-11.647,62.841-14.203 c4.395-0.532,7.527-4.527,6.994-8.923c-0.532-4.395-4.518-7.527-8.923-6.994c-21.734,2.634-43.51,7.51-64.741,14.497h-31.618 c-65.965-21.722-123.107-19.205-163.949-11.156l23.94-77.805l82.443-41.222c3.96-1.981,5.566-6.795,3.585-10.756l-8.551-17.102 c-1.928-3.856-6.564-5.496-10.488-3.713l-94.063,42.756c-1.739,0.791-3.139,2.176-3.947,3.908L52.789,180.8 c-1.872,4.013-0.138,8.783,3.875,10.655c4.012,1.875,8.782,0.138,10.655-3.874l15.12-32.398l84.335-38.334l1.511,3.022 l-78.34,39.171c-1.96,0.979-3.432,2.718-4.077,4.812l-27.673,89.937c-9.925,2.606-18.48,5.413-25.512,8.016l23.006-49.298 c1.872-4.013,0.138-8.783-3.875-10.656s-8.782-0.137-10.655,3.875L9.304,273.989c-0.056,0.118-0.096,0.238-0.145,0.358 c-0.044,0.107-0.091,0.212-0.13,0.32c-0.073,0.201-0.131,0.402-0.187,0.605c-0.015,0.056-0.036,0.107-0.05,0.162l-0.015,0.058 c-0.004,0.016-0.009,0.033-0.012,0.049l-8.524,34.098c-0.37,1.479-0.31,3.034,0.172,4.48c2.821,8.462,6.119,19.181,9.309,29.548 c8.291,26.948,13.562,43.748,17.28,49.324c3.741,5.615,12.633,4.158,14.406-2.338l3.247-11.907 c51.383,27.446,118.734,34.917,151.49,34.917c3.037,0,5.812-1.716,7.17-4.432l40.54-81.08h24.295l40.54,81.08 c1.357,2.715,4.133,4.432,7.17,4.432c32.726,0,100.1-7.466,151.49-34.915l3.247,11.905c1.771,6.494,10.662,7.951,14.404,2.338 c3.718-5.576,8.988-22.376,17.281-49.325c3.19-10.365,6.487-21.085,9.308-29.547C512.07,312.674,512.13,311.118,511.76,309.64z M453.816,253.824l-27.682-89.967c-0.645-2.094-2.117-3.833-4.077-4.812l-78.341-39.171l1.511-3.022l84.335,38.334l49.756,106.62 C472.268,259.199,463.72,256.409,453.816,253.824z M320.786,397.576l-40.513-81.026c-1.359-2.715-4.133-4.432-7.17-4.432h-34.205 c-3.037,0-5.813,1.716-7.17,4.432l-40.513,81.026c-33.464-0.715-95.744-8.67-142.225-34.734l17.095-62.68 c34.431-15.195,114.488-21.955,169.656,1.688c0.998,0.428,2.073,0.648,3.159,0.648h34.205c1.086,0,2.16-0.22,3.159-0.648 c55.167-23.644,135.225-16.881,169.656-1.688l17.095,62.68C416.522,388.909,354.227,396.862,320.786,397.576z"/> </g> </g> <g> <g> <path d="M479.399,303.568h-1.069c-4.427,0-8.017,3.588-8.017,8.017c0,4.428,3.589,8.017,8.017,8.017h1.069 c4.427,0,8.017-3.588,8.017-8.017C487.415,307.156,483.826,303.568,479.399,303.568z"/> </g> </g> <g> <g> <path d="M34.739,303.568H33.67c-4.427,0-8.017,3.588-8.017,8.017c0,4.428,3.589,8.017,8.017,8.017h1.069 c4.427,0,8.017-3.588,8.017-8.017C42.756,307.156,39.166,303.568,34.739,303.568z"/> </g> </g> <g> <g> <path d="M424.14,331.569c-3.131-3.129-8.207-3.129-11.337,0l-21.378,21.378c-2.919,2.919-3.113,7.74-0.426,10.878 c2.997,3.501,8.503,3.72,11.763,0.46l21.378-21.378C427.271,339.774,427.271,334.699,424.14,331.569z"/> </g> </g> <g> <g> <path d="M402.762,305.915c-3.131-3.13-8.207-3.13-11.337,0l-47.031,47.031c-2.919,2.919-3.113,7.74-0.427,10.878 c2.997,3.501,8.503,3.72,11.763,0.46l47.031-47.031C405.893,314.122,405.893,309.047,402.762,305.915z"/> </g> </g> <g> <g> <path d="M176.157,331.569c-3.131-3.129-8.207-3.129-11.337,0l-21.378,21.378c-2.919,2.919-3.113,7.74-0.427,10.878 c2.997,3.501,8.503,3.72,11.763,0.46l21.378-21.378C179.288,339.774,179.288,334.699,176.157,331.569z"/> </g> </g> <g> <g> <path d="M154.779,305.915c-3.131-3.13-8.207-3.13-11.337,0l-47.031,47.031c-2.919,2.919-3.113,7.74-0.427,10.878 c2.997,3.501,8.503,3.72,11.763,0.46l47.031-47.031C157.91,314.122,157.91,309.047,154.779,305.915z"/> </g> </g> </g>
</svg>