<!DOCTYPE svg PUBLIC "-//W3C//DTD SVG 1.1//EN" "http://www.w3.org/Graphics/SVG/1.1/DTD/svg11.dtd">
<!-- Uploaded to: SVG Repo, www.svgrepo.com, Transformed by: SVG Repo Mixer Tools -->
<svg fill="#fff" version="1.1" id="Layer_1" xmlns:x="&amp;ns_extend;" xmlns:i="&amp;ns_ai;" xmlns:graph="&amp;ns_graphs;" xmlns="http://www.w3.org/2000/svg" xmlns:xlink="http://www.w3.org/1999/xlink" width="800px" height="800px" viewBox="0 0 24 24" enable-background="new 0 0 24 24" xml:space="preserve" stroke="#fff">
<g id="SVGRepo_bgCarrier" stroke-width="0"/>
<g id="SVGRepo_tracerCarrier" stroke-linecap="round" stroke-linejoin="round"/>
<g id="SVGRepo_iconCarrier"> <metadata> <sfw> <slices> </slices> <slicesourcebounds width="505" height="984" bottomleftorigin="true" x="0" y="-552"> </slicesourcebounds> </sfw> </metadata> <g> <g> <g> <path d="M12,24C5.4,24,0,18.6,0,12S5.4,0,12,0s12,5.4,12,12S18.6,24,12,24z M12,2C6.5,2,2,6.5,2,12s4.5,10,10,10s10-4.5,10-10 S17.5,2,12,2z"/> </g> </g> <g> <g> <path d="M7,13c-1.7,0-3-1.3-3-3s1.3-3,3-3s3,1.3,3,3S8.7,13,7,13z M7,9c-0.6,0-1,0.4-1,1s0.4,1,1,1s1-0.4,1-1S7.6,9,7,9z"/> </g> </g> <g> <g> <path d="M17,13c-1.7,0-3-1.3-3-3s1.3-3,3-3s3,1.3,3,3S18.7,13,17,13z M17,9c-0.6,0-1,0.4-1,1s0.4,1,1,1s1-0.4,1-1S17.6,9,17,9z"/> </g> </g> <g> <g> <path d="M12,20c-2.4,0-4.7-1.1-6.2-2.9c-0.3-0.4-0.3-1.1,0.1-1.4c0.4-0.3,1.1-0.3,1.4,0.1C8.5,17.2,10.2,18,12,18 s3.5-0.8,4.6-2.2c0.3-0.4,1-0.5,1.4-0.1c0.4,0.3,0.5,1,0.1,1.4C16.7,18.9,14.4,20,12,20z"/> </g> </g> </g> </g>
</svg>